<?xml version="1.0" encoding="utf-8" standalone="no"?>
<!DOCTYPE svg PUBLIC "-//W3C//DTD SVG 1.1//EN"
  "http://www.w3.org/Graphics/SVG/1.1/DTD/svg11.dtd">
<svg xmlns:xlink="http://www.w3.org/1999/xlink" width="541.44pt" height="493.2pt" viewBox="0 0 541.44 493.2" xmlns="http://www.w3.org/2000/svg" version="1.1">
 <metadata>
  <rdf:RDF xmlns:dc="http://purl.org/dc/elements/1.1/" xmlns:cc="http://creativecommons.org/ns#" xmlns:rdf="http://www.w3.org/1999/02/22-rdf-syntax-ns#">
   <cc:Work>
    <dc:type rdf:resource="http://purl.org/dc/dcmitype/StillImage"/>
    <dc:date>2021-12-07T07:43:58.250386</dc:date>
    <dc:format>image/svg+xml</dc:format>
    <dc:creator>
     <cc:Agent>
      <dc:title>Matplotlib v3.5.0, https://matplotlib.org/</dc:title>
     </cc:Agent>
    </dc:creator>
   </cc:Work>
  </rdf:RDF>
 </metadata>
 <defs>
  <style type="text/css">*{stroke-linejoin: round; stroke-linecap: butt}</style>
 </defs>
 <g id="figure_1">
  <g id="patch_1">
   <path d="M 0 493.2 
L 541.44 493.2 
L 541.44 0 
L 0 0 
z
" style="fill: #ffffff"/>
  </g>
  <g id="axes_1">
   <g id="patch_2">
    <path d="M 67.68 438.948 
L 487.296 438.948 
L 487.296 59.184 
L 67.68 59.184 
z
" style="fill: #ffffff"/>
   </g>
   <g id="LineCollection_1">
    <path d="M 468.222545 249.066 
L 86.753455 249.066015 
" clip-path="url(#p971115ffcb)" style="fill: none; stroke: #32cd32; stroke-width: 2"/>
    <path d="M 468.222545 249.066 
L 277.487992 76.446 
" clip-path="url(#p971115ffcb)" style="fill: none; stroke: #808080; stroke-width: 0.1"/>
    <path d="M 468.222545 249.066 
L 412.357688 127.00523 
" clip-path="url(#p971115ffcb)" style="fill: none; stroke: #808080; stroke-width: 0.1"/>
    <path d="M 412.357688 127.00523 
L 142.6183 371.12676 
" clip-path="url(#p971115ffcb)" style="fill: none; stroke: #808080; stroke-width: 0.1"/>
    <path d="M 412.357688 127.00523 
L 142.618312 127.00523 
" clip-path="url(#p971115ffcb)" style="fill: none; stroke: #808080; stroke-width: 0.1"/>
    <path d="M 412.357688 127.00523 
L 468.222545 249.066 
" clip-path="url(#p971115ffcb)" style="fill: none; stroke: #808080; stroke-width: 0.1"/>
    <path d="M 277.487992 76.446 
L 277.488002 421.686 
" clip-path="url(#p971115ffcb)" style="fill: none; stroke: #808080; stroke-width: 0.1"/>
    <path d="M 277.487992 76.446 
L 142.618312 127.00523 
" clip-path="url(#p971115ffcb)" style="fill: none; stroke: #808080; stroke-width: 0.1"/>
    <path d="M 277.487992 76.446 
L 468.222545 249.066 
" clip-path="url(#p971115ffcb)" style="fill: none; stroke: #808080; stroke-width: 0.1"/>
    <path d="M 142.618312 127.00523 
L 412.357665 371.126791 
" clip-path="url(#p971115ffcb)" style="fill: none; stroke: #808080; stroke-width: 0.1"/>
    <path d="M 142.618312 127.00523 
L 412.357688 127.00523 
" clip-path="url(#p971115ffcb)" style="fill: none; stroke: #808080; stroke-width: 0.1"/>
    <path d="M 142.618312 127.00523 
L 277.487992 76.446 
" clip-path="url(#p971115ffcb)" style="fill: none; stroke: #808080; stroke-width: 0.1"/>
    <path d="M 86.753455 249.066015 
L 277.488002 421.686 
" clip-path="url(#p971115ffcb)" style="fill: none; stroke: #32cd32; stroke-width: 2"/>
    <path d="M 86.753455 249.066015 
L 142.6183 371.12676 
" clip-path="url(#p971115ffcb)" style="fill: none; stroke: #808080; stroke-width: 0.1"/>
    <path d="M 86.753455 249.066015 
L 468.222545 249.066 
" clip-path="url(#p971115ffcb)" style="fill: none; stroke: #32cd32; stroke-width: 0.1"/>
    <path d="M 142.6183 371.12676 
L 412.357665 371.126791 
" clip-path="url(#p971115ffcb)" style="fill: none; stroke: #808080; stroke-width: 0.1"/>
    <path d="M 142.6183 371.12676 
L 412.357688 127.00523 
" clip-path="url(#p971115ffcb)" style="fill: none; stroke: #808080; stroke-width: 0.1"/>
    <path d="M 142.6183 371.12676 
L 86.753455 249.066015 
" clip-path="url(#p971115ffcb)" style="fill: none; stroke: #808080; stroke-width: 0.1"/>
    <path d="M 277.488002 421.686 
L 412.357665 371.126791 
" clip-path="url(#p971115ffcb)" style="fill: none; stroke: #32cd32; stroke-width: 2"/>
    <path d="M 277.488002 421.686 
L 277.487992 76.446 
" clip-path="url(#p971115ffcb)" style="fill: none; stroke: #808080; stroke-width: 0.1"/>
    <path d="M 277.488002 421.686 
L 86.753455 249.066015 
" clip-path="url(#p971115ffcb)" style="fill: none; stroke: #32cd32; stroke-width: 0.1"/>
    <path d="M 412.357665 371.126791 
L 142.618312 127.00523 
" clip-path="url(#p971115ffcb)" style="fill: none; stroke: #808080; stroke-width: 0.1"/>
    <path d="M 412.357665 371.126791 
L 142.6183 371.12676 
" clip-path="url(#p971115ffcb)" style="fill: none; stroke: #808080; stroke-width: 0.1"/>
    <path d="M 412.357665 371.126791 
L 277.488002 421.686 
" clip-path="url(#p971115ffcb)" style="fill: none; stroke: #32cd32; stroke-width: 0.1"/>
   </g>
   <g id="matplotlib.axis_1">
    <g id="xtick_1"/>
    <g id="xtick_2"/>
    <g id="xtick_3"/>
    <g id="xtick_4"/>
    <g id="xtick_5"/>
    <g id="xtick_6"/>
    <g id="xtick_7"/>
    <g id="xtick_8"/>
    <g id="xtick_9"/>
   </g>
   <g id="matplotlib.axis_2">
    <g id="ytick_1"/>
    <g id="ytick_2"/>
    <g id="ytick_3"/>
    <g id="ytick_4"/>
    <g id="ytick_5"/>
    <g id="ytick_6"/>
    <g id="ytick_7"/>
    <g id="ytick_8"/>
    <g id="ytick_9"/>
   </g>
   <g id="PathCollection_1">
    <defs>
     <path id="C0_0_bd0ce71cc6" d="M 0 8.660254 
C 2.296726 8.660254 4.499694 7.747755 6.123724 6.123724 
C 7.747755 4.499694 8.660254 2.296726 8.660254 -0 
C 8.660254 -2.296726 7.747755 -4.499694 6.123724 -6.123724 
C 4.499694 -7.747755 2.296726 -8.660254 0 -8.660254 
C -2.296726 -8.660254 -4.499694 -7.747755 -6.123724 -6.123724 
C -7.747755 -4.499694 -8.660254 -2.296726 -8.660254 0 
C -8.660254 2.296726 -7.747755 4.499694 -6.123724 6.123724 
C -4.499694 7.747755 -2.296726 8.660254 0 8.660254 
z
"/>
    </defs>
    <g clip-path="url(#p971115ffcb)">
     <use xlink:href="#C0_0_bd0ce71cc6" x="468.222545" y="249.066" style="fill: #008000; stroke: #008000"/>
    </g>
    <g clip-path="url(#p971115ffcb)">
     <use xlink:href="#C0_0_bd0ce71cc6" x="412.357688" y="127.00523" style="fill: #d3d3d3; stroke: #d3d3d3"/>
    </g>
    <g clip-path="url(#p971115ffcb)">
     <use xlink:href="#C0_0_bd0ce71cc6" x="277.487992" y="76.446" style="fill: #d3d3d3; stroke: #d3d3d3"/>
    </g>
    <g clip-path="url(#p971115ffcb)">
     <use xlink:href="#C0_0_bd0ce71cc6" x="142.618312" y="127.00523" style="fill: #d3d3d3; stroke: #d3d3d3"/>
    </g>
    <g clip-path="url(#p971115ffcb)">
     <use xlink:href="#C0_0_bd0ce71cc6" x="86.753455" y="249.066015" style="fill: #008000; stroke: #008000"/>
    </g>
    <g clip-path="url(#p971115ffcb)">
     <use xlink:href="#C0_0_bd0ce71cc6" x="142.6183" y="371.12676" style="fill: #d3d3d3; stroke: #d3d3d3"/>
    </g>
    <g clip-path="url(#p971115ffcb)">
     <use xlink:href="#C0_0_bd0ce71cc6" x="277.488002" y="421.686" style="fill: #008000; stroke: #008000"/>
    </g>
    <g clip-path="url(#p971115ffcb)">
     <use xlink:href="#C0_0_bd0ce71cc6" x="412.357665" y="371.126791" style="fill: #008000; stroke: #008000"/>
    </g>
   </g>
   <g id="patch_3">
    <path d="M 67.68 438.948 
L 67.68 59.184 
" style="fill: none; stroke: #000000; stroke-width: 0.8; stroke-linejoin: miter; stroke-linecap: square"/>
   </g>
   <g id="patch_4">
    <path d="M 487.296 438.948 
L 487.296 59.184 
" style="fill: none; stroke: #000000; stroke-width: 0.8; stroke-linejoin: miter; stroke-linecap: square"/>
   </g>
   <g id="patch_5">
    <path d="M 67.68 438.948 
L 487.296 438.948 
" style="fill: none; stroke: #000000; stroke-width: 0.8; stroke-linejoin: miter; stroke-linecap: square"/>
   </g>
   <g id="patch_6">
    <path d="M 67.68 59.184 
L 487.296 59.184 
" style="fill: none; stroke: #000000; stroke-width: 0.8; stroke-linejoin: miter; stroke-linecap: square"/>
   </g>
   <g id="text_1">
    <g clip-path="url(#p971115ffcb)">
     <!-- 000 -->
     <g transform="translate(459.63317 251.549437)scale(0.09 -0.09)">
      <defs>
       <path id="DejaVuSans-30" d="M 2034 4250 
Q 1547 4250 1301 3770 
Q 1056 3291 1056 2328 
Q 1056 1369 1301 889 
Q 1547 409 2034 409 
Q 2525 409 2770 889 
Q 3016 1369 3016 2328 
Q 3016 3291 2770 3770 
Q 2525 4250 2034 4250 
z
M 2034 4750 
Q 2819 4750 3233 4129 
Q 3647 3509 3647 2328 
Q 3647 1150 3233 529 
Q 2819 -91 2034 -91 
Q 1250 -91 836 529 
Q 422 1150 422 2328 
Q 422 3509 836 4129 
Q 1250 4750 2034 4750 
z
" transform="scale(0.015625)"/>
      </defs>
      <use xlink:href="#DejaVuSans-30"/>
      <use xlink:href="#DejaVuSans-30" x="63.623047"/>
      <use xlink:href="#DejaVuSans-30" x="127.246094"/>
     </g>
    </g>
   </g>
   <g id="text_2">
    <g clip-path="url(#p971115ffcb)">
     <!-- 001 -->
     <g transform="translate(403.768313 129.488667)scale(0.09 -0.09)">
      <defs>
       <path id="DejaVuSans-31" d="M 794 531 
L 1825 531 
L 1825 4091 
L 703 3866 
L 703 4441 
L 1819 4666 
L 2450 4666 
L 2450 531 
L 3481 531 
L 3481 0 
L 794 0 
L 794 531 
z
" transform="scale(0.015625)"/>
      </defs>
      <use xlink:href="#DejaVuSans-30"/>
      <use xlink:href="#DejaVuSans-30" x="63.623047"/>
      <use xlink:href="#DejaVuSans-31" x="127.246094"/>
     </g>
    </g>
   </g>
   <g id="text_3">
    <g clip-path="url(#p971115ffcb)">
     <!-- 010 -->
     <g transform="translate(268.898617 78.929437)scale(0.09 -0.09)">
      <use xlink:href="#DejaVuSans-30"/>
      <use xlink:href="#DejaVuSans-31" x="63.623047"/>
      <use xlink:href="#DejaVuSans-30" x="127.246094"/>
     </g>
    </g>
   </g>
   <g id="text_4">
    <g clip-path="url(#p971115ffcb)">
     <!-- 011 -->
     <g transform="translate(134.028937 129.488667)scale(0.09 -0.09)">
      <use xlink:href="#DejaVuSans-30"/>
      <use xlink:href="#DejaVuSans-31" x="63.623047"/>
      <use xlink:href="#DejaVuSans-31" x="127.246094"/>
     </g>
    </g>
   </g>
   <g id="text_5">
    <g clip-path="url(#p971115ffcb)">
     <!-- 100 -->
     <g transform="translate(78.16408 251.549453)scale(0.09 -0.09)">
      <use xlink:href="#DejaVuSans-31"/>
      <use xlink:href="#DejaVuSans-30" x="63.623047"/>
      <use xlink:href="#DejaVuSans-30" x="127.246094"/>
     </g>
    </g>
   </g>
   <g id="text_6">
    <g clip-path="url(#p971115ffcb)">
     <!-- 101 -->
     <g transform="translate(134.028925 373.610198)scale(0.09 -0.09)">
      <use xlink:href="#DejaVuSans-31"/>
      <use xlink:href="#DejaVuSans-30" x="63.623047"/>
      <use xlink:href="#DejaVuSans-31" x="127.246094"/>
     </g>
    </g>
   </g>
   <g id="text_7">
    <g clip-path="url(#p971115ffcb)">
     <!-- 110 -->
     <g transform="translate(268.898627 424.169437)scale(0.09 -0.09)">
      <use xlink:href="#DejaVuSans-31"/>
      <use xlink:href="#DejaVuSans-31" x="63.623047"/>
      <use xlink:href="#DejaVuSans-30" x="127.246094"/>
     </g>
    </g>
   </g>
   <g id="text_8">
    <g clip-path="url(#p971115ffcb)">
     <!-- 111 -->
     <g transform="translate(403.76829 373.610229)scale(0.09 -0.09)">
      <use xlink:href="#DejaVuSans-31"/>
      <use xlink:href="#DejaVuSans-31" x="63.623047"/>
      <use xlink:href="#DejaVuSans-31" x="127.246094"/>
     </g>
    </g>
   </g>
  </g>
 </g>
 <defs>
  <clipPath id="p971115ffcb">
   <rect x="67.68" y="59.184" width="419.616" height="379.764"/>
  </clipPath>
 </defs>
</svg>
