<?xml version="1.0" encoding="utf-8" standalone="no"?>
<!DOCTYPE svg PUBLIC "-//W3C//DTD SVG 1.1//EN"
  "http://www.w3.org/Graphics/SVG/1.1/DTD/svg11.dtd">
<svg xmlns:xlink="http://www.w3.org/1999/xlink" width="460.8pt" height="459.36pt" viewBox="0 0 460.8 459.36" xmlns="http://www.w3.org/2000/svg" version="1.1">
 <metadata>
  <rdf:RDF xmlns:dc="http://purl.org/dc/elements/1.1/" xmlns:cc="http://creativecommons.org/ns#" xmlns:rdf="http://www.w3.org/1999/02/22-rdf-syntax-ns#">
   <cc:Work>
    <dc:type rdf:resource="http://purl.org/dc/dcmitype/StillImage"/>
    <dc:date>2021-12-06T10:23:21.316566</dc:date>
    <dc:format>image/svg+xml</dc:format>
    <dc:creator>
     <cc:Agent>
      <dc:title>Matplotlib v3.5.0, https://matplotlib.org/</dc:title>
     </cc:Agent>
    </dc:creator>
   </cc:Work>
  </rdf:RDF>
 </metadata>
 <defs>
  <style type="text/css">*{stroke-linejoin: round; stroke-linecap: butt}</style>
 </defs>
 <g id="figure_1">
  <g id="patch_1">
   <path d="M 0 459.36 
L 460.8 459.36 
L 460.8 0 
L 0 0 
z
" style="fill: #ffffff"/>
  </g>
  <g id="axes_1">
   <g id="patch_2">
    <path d="M 57.6 408.8304 
L 414.72 408.8304 
L 414.72 55.1232 
L 57.6 55.1232 
z
" style="fill: #ffffff"/>
   </g>
   <g id="LineCollection_1">
    <path d="M 398.487273 231.9768 
L 73.832727 231.976814 
" clip-path="url(#p4376c9044f)" style="fill: none; stroke: #32cd32; stroke-width: 2"/>
    <path d="M 398.487273 231.9768 
L 236.159993 71.2008 
" clip-path="url(#p4376c9044f)" style="fill: none; stroke: #808080; stroke-width: 0.1"/>
    <path d="M 398.487273 231.9768 
L 350.942713 118.291002 
" clip-path="url(#p4376c9044f)" style="fill: none; stroke: #808080; stroke-width: 0.1"/>
    <path d="M 350.942713 118.291002 
L 121.377277 345.662588 
" clip-path="url(#p4376c9044f)" style="fill: none; stroke: #808080; stroke-width: 0.1"/>
    <path d="M 350.942713 118.291002 
L 121.377287 118.291002 
" clip-path="url(#p4376c9044f)" style="fill: none; stroke: #808080; stroke-width: 0.1"/>
    <path d="M 350.942713 118.291002 
L 398.487273 231.9768 
" clip-path="url(#p4376c9044f)" style="fill: none; stroke: #808080; stroke-width: 0.1"/>
    <path d="M 236.159993 71.2008 
L 236.160002 392.7528 
" clip-path="url(#p4376c9044f)" style="fill: none; stroke: #808080; stroke-width: 0.1"/>
    <path d="M 236.159993 71.2008 
L 121.377287 118.291002 
" clip-path="url(#p4376c9044f)" style="fill: none; stroke: #808080; stroke-width: 0.1"/>
    <path d="M 236.159993 71.2008 
L 398.487273 231.9768 
" clip-path="url(#p4376c9044f)" style="fill: none; stroke: #808080; stroke-width: 0.1"/>
    <path d="M 121.377287 118.291002 
L 350.942694 345.662617 
" clip-path="url(#p4376c9044f)" style="fill: none; stroke: #808080; stroke-width: 0.1"/>
    <path d="M 121.377287 118.291002 
L 350.942713 118.291002 
" clip-path="url(#p4376c9044f)" style="fill: none; stroke: #808080; stroke-width: 0.1"/>
    <path d="M 121.377287 118.291002 
L 236.159993 71.2008 
" clip-path="url(#p4376c9044f)" style="fill: none; stroke: #808080; stroke-width: 0.1"/>
    <path d="M 73.832727 231.976814 
L 236.160002 392.7528 
" clip-path="url(#p4376c9044f)" style="fill: none; stroke: #32cd32; stroke-width: 2"/>
    <path d="M 73.832727 231.976814 
L 121.377277 345.662588 
" clip-path="url(#p4376c9044f)" style="fill: none; stroke: #808080; stroke-width: 0.1"/>
    <path d="M 73.832727 231.976814 
L 398.487273 231.9768 
" clip-path="url(#p4376c9044f)" style="fill: none; stroke: #32cd32; stroke-width: 0.1"/>
    <path d="M 121.377277 345.662588 
L 350.942694 345.662617 
" clip-path="url(#p4376c9044f)" style="fill: none; stroke: #808080; stroke-width: 0.1"/>
    <path d="M 121.377277 345.662588 
L 350.942713 118.291002 
" clip-path="url(#p4376c9044f)" style="fill: none; stroke: #808080; stroke-width: 0.1"/>
    <path d="M 121.377277 345.662588 
L 73.832727 231.976814 
" clip-path="url(#p4376c9044f)" style="fill: none; stroke: #808080; stroke-width: 0.1"/>
    <path d="M 236.160002 392.7528 
L 350.942694 345.662617 
" clip-path="url(#p4376c9044f)" style="fill: none; stroke: #32cd32; stroke-width: 2"/>
    <path d="M 236.160002 392.7528 
L 236.159993 71.2008 
" clip-path="url(#p4376c9044f)" style="fill: none; stroke: #808080; stroke-width: 0.1"/>
    <path d="M 236.160002 392.7528 
L 73.832727 231.976814 
" clip-path="url(#p4376c9044f)" style="fill: none; stroke: #32cd32; stroke-width: 0.1"/>
    <path d="M 350.942694 345.662617 
L 121.377287 118.291002 
" clip-path="url(#p4376c9044f)" style="fill: none; stroke: #808080; stroke-width: 0.1"/>
    <path d="M 350.942694 345.662617 
L 121.377277 345.662588 
" clip-path="url(#p4376c9044f)" style="fill: none; stroke: #808080; stroke-width: 0.1"/>
    <path d="M 350.942694 345.662617 
L 236.160002 392.7528 
" clip-path="url(#p4376c9044f)" style="fill: none; stroke: #32cd32; stroke-width: 0.1"/>
   </g>
   <g id="matplotlib.axis_1">
    <g id="xtick_1"/>
    <g id="xtick_2"/>
    <g id="xtick_3"/>
    <g id="xtick_4"/>
    <g id="xtick_5"/>
    <g id="xtick_6"/>
    <g id="xtick_7"/>
    <g id="xtick_8"/>
    <g id="xtick_9"/>
   </g>
   <g id="matplotlib.axis_2">
    <g id="ytick_1"/>
    <g id="ytick_2"/>
    <g id="ytick_3"/>
    <g id="ytick_4"/>
    <g id="ytick_5"/>
    <g id="ytick_6"/>
    <g id="ytick_7"/>
    <g id="ytick_8"/>
    <g id="ytick_9"/>
   </g>
   <g id="PathCollection_1">
    <defs>
     <path id="C0_0_92353b8651" d="M 0 8.660254 
C 2.296726 8.660254 4.499694 7.747755 6.123724 6.123724 
C 7.747755 4.499694 8.660254 2.296726 8.660254 -0 
C 8.660254 -2.296726 7.747755 -4.499694 6.123724 -6.123724 
C 4.499694 -7.747755 2.296726 -8.660254 0 -8.660254 
C -2.296726 -8.660254 -4.499694 -7.747755 -6.123724 -6.123724 
C -7.747755 -4.499694 -8.660254 -2.296726 -8.660254 0 
C -8.660254 2.296726 -7.747755 4.499694 -6.123724 6.123724 
C -4.499694 7.747755 -2.296726 8.660254 0 8.660254 
z
"/>
    </defs>
    <g clip-path="url(#p4376c9044f)">
     <use xlink:href="#C0_0_92353b8651" x="398.487273" y="231.9768" style="fill: #008000; stroke: #008000"/>
    </g>
    <g clip-path="url(#p4376c9044f)">
     <use xlink:href="#C0_0_92353b8651" x="350.942713" y="118.291002" style="fill: #d3d3d3; stroke: #d3d3d3"/>
    </g>
    <g clip-path="url(#p4376c9044f)">
     <use xlink:href="#C0_0_92353b8651" x="236.159993" y="71.2008" style="fill: #d3d3d3; stroke: #d3d3d3"/>
    </g>
    <g clip-path="url(#p4376c9044f)">
     <use xlink:href="#C0_0_92353b8651" x="121.377287" y="118.291002" style="fill: #d3d3d3; stroke: #d3d3d3"/>
    </g>
    <g clip-path="url(#p4376c9044f)">
     <use xlink:href="#C0_0_92353b8651" x="73.832727" y="231.976814" style="fill: #008000; stroke: #008000"/>
    </g>
    <g clip-path="url(#p4376c9044f)">
     <use xlink:href="#C0_0_92353b8651" x="121.377277" y="345.662588" style="fill: #d3d3d3; stroke: #d3d3d3"/>
    </g>
    <g clip-path="url(#p4376c9044f)">
     <use xlink:href="#C0_0_92353b8651" x="236.160002" y="392.7528" style="fill: #008000; stroke: #008000"/>
    </g>
    <g clip-path="url(#p4376c9044f)">
     <use xlink:href="#C0_0_92353b8651" x="350.942694" y="345.662617" style="fill: #008000; stroke: #008000"/>
    </g>
   </g>
   <g id="patch_3">
    <path d="M 57.6 408.8304 
L 57.6 55.1232 
" style="fill: none; stroke: #000000; stroke-width: 0.8; stroke-linejoin: miter; stroke-linecap: square"/>
   </g>
   <g id="patch_4">
    <path d="M 414.72 408.8304 
L 414.72 55.1232 
" style="fill: none; stroke: #000000; stroke-width: 0.8; stroke-linejoin: miter; stroke-linecap: square"/>
   </g>
   <g id="patch_5">
    <path d="M 57.6 408.8304 
L 414.72 408.8304 
" style="fill: none; stroke: #000000; stroke-width: 0.8; stroke-linejoin: miter; stroke-linecap: square"/>
   </g>
   <g id="patch_6">
    <path d="M 57.6 55.1232 
L 414.72 55.1232 
" style="fill: none; stroke: #000000; stroke-width: 0.8; stroke-linejoin: miter; stroke-linecap: square"/>
   </g>
   <g id="text_1">
    <g clip-path="url(#p4376c9044f)">
     <!-- 000 -->
     <g transform="translate(389.897898 234.460238)scale(0.09 -0.09)">
      <defs>
       <path id="DejaVuSans-30" d="M 2034 4250 
Q 1547 4250 1301 3770 
Q 1056 3291 1056 2328 
Q 1056 1369 1301 889 
Q 1547 409 2034 409 
Q 2525 409 2770 889 
Q 3016 1369 3016 2328 
Q 3016 3291 2770 3770 
Q 2525 4250 2034 4250 
z
M 2034 4750 
Q 2819 4750 3233 4129 
Q 3647 3509 3647 2328 
Q 3647 1150 3233 529 
Q 2819 -91 2034 -91 
Q 1250 -91 836 529 
Q 422 1150 422 2328 
Q 422 3509 836 4129 
Q 1250 4750 2034 4750 
z
" transform="scale(0.015625)"/>
      </defs>
      <use xlink:href="#DejaVuSans-30"/>
      <use xlink:href="#DejaVuSans-30" x="63.623047"/>
      <use xlink:href="#DejaVuSans-30" x="127.246094"/>
     </g>
    </g>
   </g>
   <g id="text_2">
    <g clip-path="url(#p4376c9044f)">
     <!-- 001 -->
     <g transform="translate(342.353338 120.77444)scale(0.09 -0.09)">
      <defs>
       <path id="DejaVuSans-31" d="M 794 531 
L 1825 531 
L 1825 4091 
L 703 3866 
L 703 4441 
L 1819 4666 
L 2450 4666 
L 2450 531 
L 3481 531 
L 3481 0 
L 794 0 
L 794 531 
z
" transform="scale(0.015625)"/>
      </defs>
      <use xlink:href="#DejaVuSans-30"/>
      <use xlink:href="#DejaVuSans-30" x="63.623047"/>
      <use xlink:href="#DejaVuSans-31" x="127.246094"/>
     </g>
    </g>
   </g>
   <g id="text_3">
    <g clip-path="url(#p4376c9044f)">
     <!-- 010 -->
     <g transform="translate(227.570618 73.684237)scale(0.09 -0.09)">
      <use xlink:href="#DejaVuSans-30"/>
      <use xlink:href="#DejaVuSans-31" x="63.623047"/>
      <use xlink:href="#DejaVuSans-30" x="127.246094"/>
     </g>
    </g>
   </g>
   <g id="text_4">
    <g clip-path="url(#p4376c9044f)">
     <!-- 011 -->
     <g transform="translate(112.787912 120.77444)scale(0.09 -0.09)">
      <use xlink:href="#DejaVuSans-30"/>
      <use xlink:href="#DejaVuSans-31" x="63.623047"/>
      <use xlink:href="#DejaVuSans-31" x="127.246094"/>
     </g>
    </g>
   </g>
   <g id="text_5">
    <g clip-path="url(#p4376c9044f)">
     <!-- 100 -->
     <g transform="translate(65.243352 234.460252)scale(0.09 -0.09)">
      <use xlink:href="#DejaVuSans-31"/>
      <use xlink:href="#DejaVuSans-30" x="63.623047"/>
      <use xlink:href="#DejaVuSans-30" x="127.246094"/>
     </g>
    </g>
   </g>
   <g id="text_6">
    <g clip-path="url(#p4376c9044f)">
     <!-- 101 -->
     <g transform="translate(112.787902 348.146026)scale(0.09 -0.09)">
      <use xlink:href="#DejaVuSans-31"/>
      <use xlink:href="#DejaVuSans-30" x="63.623047"/>
      <use xlink:href="#DejaVuSans-31" x="127.246094"/>
     </g>
    </g>
   </g>
   <g id="text_7">
    <g clip-path="url(#p4376c9044f)">
     <!-- 110 -->
     <g transform="translate(227.570627 395.236238)scale(0.09 -0.09)">
      <use xlink:href="#DejaVuSans-31"/>
      <use xlink:href="#DejaVuSans-31" x="63.623047"/>
      <use xlink:href="#DejaVuSans-30" x="127.246094"/>
     </g>
    </g>
   </g>
   <g id="text_8">
    <g clip-path="url(#p4376c9044f)">
     <!-- 111 -->
     <g transform="translate(342.353319 348.146055)scale(0.09 -0.09)">
      <use xlink:href="#DejaVuSans-31"/>
      <use xlink:href="#DejaVuSans-31" x="63.623047"/>
      <use xlink:href="#DejaVuSans-31" x="127.246094"/>
     </g>
    </g>
   </g>
  </g>
 </g>
 <defs>
  <clipPath id="p4376c9044f">
   <rect x="57.6" y="55.1232" width="357.12" height="353.7072"/>
  </clipPath>
 </defs>
</svg>
